<svg xmlns="http://www.w3.org/2000/svg" viewBox="0 0 64 64">
  <defs>
    <linearGradient id="flame" x1="0" y1="0" x2="1" y2="1">
      <stop offset="0%" stop-color="#ffd36a"/>
      <stop offset="55%" stop-color="#ff8a3d"/>
      <stop offset="100%" stop-color="#b53d1f"/>
    </linearGradient>
  </defs>
  <rect width="64" height="64" rx="14" fill="#201711"/>
  <path d="M20 50c0-10 6-14 10-19 3-4 4-9 3-15 10 7 17 15 17 24 0 9-7 16-16 16-8 0-14-6-14-14Z" fill="url(#flame)"/>
  <path d="M31 52c-4 0-7-3-7-7 0-4 2-7 5-10 2-2 3-4 3-7 6 4 10 9 10 15 0 5-5 9-11 9Z" fill="#ffe7a3"/>
  <path d="M17 47 39 25l8 8-22 22-8 2 2-8Z" fill="#7d5637"/>
  <path d="M39 25l4-4c1-1 3-1 4 0l4 4c1 1 1 3 0 4l-4 4-8-8Z" fill="#d8d4ce"/>
</svg>
